<?xml version="1.0" encoding="utf-8"?><svg xmlns="http://www.w3.org/2000/svg" xmlns:xlink="http://www.w3.org/1999/xlink"><symbol viewBox="0 0 40 40" id="1" xmlns="http://www.w3.org/2000/svg"><path d="M.64 18.446L15.084 4a2.173 2.173 0 011.548-.639c.586 0 1.136.227 1.548.639l1.311 1.312c.413.412.64.962.64 1.548 0 .586-.227 1.154-.64 1.566l-8.427 8.446H37.84c1.207 0 2.161.945 2.161 2.152v1.855c0 1.207-.954 2.248-2.161 2.248H10.97l8.523 8.493c.412.412.64.947.64 1.533s-.228 1.129-.64 1.54l-1.311 1.308a2.171 2.171 0 01-1.549.638 2.175 2.175 0 01-1.548-.64L.64 21.553A2.174 2.174 0 010 20a2.174 2.174 0 01.64-1.554z"/></symbol><symbol viewBox="0 0 40 40" id="2" xmlns="http://www.w3.org/2000/svg"><path d="M39.36 18.446L24.916 4a2.173 2.173 0 00-1.548-.639c-.586 0-1.136.227-1.548.639l-1.311 1.312c-.413.412-.64.962-.64 1.548 0 .586.227 1.154.64 1.566l8.427 8.446H2.16A2.136 2.136 0 000 19.024v1.855c0 1.207.954 2.248 2.161 2.248h26.87l-8.523 8.493a2.141 2.141 0 00-.64 1.533c0 .586.228 1.129.64 1.54l1.311 1.308c.413.413.962.638 1.549.638.586 0 1.135-.228 1.548-.64L39.36 21.553A2.18 2.18 0 0039.999 20a2.174 2.174 0 00-.64-1.554z"/></symbol><symbol viewBox="0 0 492 492" id="back" xmlns="http://www.w3.org/2000/svg"><path d="M198.608 246.104L382.664 62.04c5.068-5.056 7.856-11.816 7.856-19.024 0-7.212-2.788-13.968-7.856-19.032l-16.128-16.12C361.476 2.792 354.712 0 347.504 0s-13.964 2.792-19.028 7.864L109.328 227.008c-5.084 5.08-7.868 11.868-7.848 19.084-.02 7.248 2.76 14.028 7.848 19.112l218.944 218.932c5.064 5.072 11.82 7.864 19.032 7.864 7.208 0 13.964-2.792 19.032-7.864l16.124-16.12c10.492-10.492 10.492-27.572 0-38.06L198.608 246.104z"/></symbol><symbol viewBox="0 0 14 14" id="mail" xmlns="http://www.w3.org/2000/svg"><g clip-path="url(#dclip0)"><path d="M12.29 1.673H1.713C.768 1.673 0 2.44 0 3.385v7.23c0 .944.768 1.712 1.712 1.712h10.576c.944 0 1.712-.768 1.712-1.712V3.388a1.712 1.712 0 00-1.71-1.715zm.93 8.942a.93.93 0 01-.93.93H1.713a.93.93 0 01-.93-.93V3.388a.93.93 0 01.93-.93h10.576a.93.93 0 01.93.93v7.227h.003z"/><path d="M8.83 6.91l3.423-3.07a.393.393 0 00.03-.554.393.393 0 00-.554-.029L7.007 7.495l-.92-.822a.579.579 0 00-.07-.064L2.268 3.255a.39.39 0 00-.553.031.39.39 0 00.032.554L5.21 6.936l-3.45 3.23a.393.393 0 00.536.574L5.8 7.463l.95.85a.39.39 0 00.522-.004l.976-.874 3.482 3.308a.39.39 0 10.539-.568L8.829 6.91z"/></g><defs><clipPath id="dclip0"><path d="M0 0h14v14H0z"/></clipPath></defs></symbol><symbol viewBox="0 0 492.004 492.004" id="next" xmlns="http://www.w3.org/2000/svg"><path d="M382.678 226.804L163.73 7.86C158.666 2.792 151.906 0 144.698 0s-13.968 2.792-19.032 7.86l-16.124 16.12c-10.492 10.504-10.492 27.576 0 38.064L293.398 245.9l-184.06 184.06c-5.064 5.068-7.86 11.824-7.86 19.028 0 7.212 2.796 13.968 7.86 19.04l16.124 16.116c5.068 5.068 11.824 7.86 19.032 7.86s13.968-2.792 19.032-7.86L382.678 265c5.076-5.084 7.864-11.872 7.848-19.088.016-7.244-2.772-14.028-7.848-19.108z"/></symbol></svg>